<?xml version="1.0" standalone="no"?><!DOCTYPE svg PUBLIC "-//W3C//DTD SVG 1.1//EN" "http://www.w3.org/Graphics/SVG/1.1/DTD/svg11.dtd"><svg t="1610351653970" class="icon" viewBox="0 0 1024 1024" version="1.1" xmlns="http://www.w3.org/2000/svg" p-id="2738" xmlns:xlink="http://www.w3.org/1999/xlink" width="128" height="128"><defs><style type="text/css"></style></defs><path d="M511.997631 0.005575A433.525278 433.525278 0 0 0 76.757119 431.386811a428.808386 428.808386 0 0 0 132.9306 310.457271l250.424097 241.84793c31.731821 45.453689 80.615977 57.031515 108.059713 8.147359l274.008559-279.583068a422.37626 422.37626 0 0 0 53.601048-78.043126 428.808386 428.808386 0 0 0 51.457006-203.683983A433.09647 433.09647 0 0 0 511.997631 0.005575z m0 740.123274A312.601313 312.601313 0 1 1 827.600603 428.81396a313.45893 313.45893 0 0 1-314.745356 312.601314z" p-id="2739"></path><path d="M650.502739 406.515924H557.022511a18.009952 18.009952 0 0 1-19.296377-20.582802V231.562103a37.735138 37.735138 0 0 0-42.880839-38.592755 42.880839 42.880839 0 0 0-32.160629 40.736797v211.402534a42.880839 42.880839 0 0 0 38.163947 40.307988h152.226977a39.450372 39.450372 0 0 0 38.163946-45.882497 42.880839 42.880839 0 0 0-40.736797-33.018246z" p-id="2740"></path></svg>